# xmcd CD database file
#
# Track frame offsets:
#	150
#	26179
#	60794
#	85047
#	109307
#	126779
#	149307
#	178796
#	194588
#
# Disc length: 2876 seconds
#
# Revision: 0
# Processed by: cddbd v1.5.1PL0 Copyright (c) Steve Scherf et al.
# Submitted via: CDex 1.51
#
DISCID=7b0b3a09
DTITLE=Stan Kenton and His Orchestra - At the Ernst-Merck-Halle, Hamburg, Germany Disc 2
DYEAR=2003
DGENRE=Jazz
TTITLE0=23 degree N - 82 degree W
TTITLE1=Concerto to End All Concertos
TTITLE2=Intermission Riff
TTITLE3=Polka Dots and Monbeams
TTITLE4=Carl
TTITLE5=The Peanut Vendor
TTITLE6=Stella by Starlight
TTITLE7=Cherokee
TTITLE8=Young Blood
EXTD=YEAR: 2003
EXTT0=
EXTT1=
EXTT2=
EXTT3=
EXTT4=
EXTT5=
EXTT6=
EXTT7=
EXTT8=
PLAYORDER=
